HIERARCHY
ROOT Hips
{
	OFFSET -0.001795 -0.223333 0.028219
	CHANNELS 6 Xposition Yposition Zposition Zrotation Yrotation Xrotation 
	JOINT LeftUpLeg
	{
		OFFSET 0.069520 -0.091406 -0.006815
		CHANNELS 3 Zrotation Yrotation Xrotation
		JOINT LeftLeg
		{
			OFFSET 0.034277 -0.375199 -0.004496
			CHANNELS 3 Zrotation Yrotation Xrotation
			JOINT LeftFoot
			{
				OFFSET -0.013596 -0.397961 -0.043693
				CHANNELS 3 Zrotation Yrotation Xrotation
				JOINT LeftToe
				{
					OFFSET 0.026358 -0.055791 0.119288
					CHANNELS 3 Zrotation Yrotation Xrotation
					End Site
					{
						OFFSET 0.000000 0.000000 0.000000
					}
				}
			}
		}
	}
	JOINT RightUpLeg
	{
		OFFSET -0.067670 -0.090522 -0.004320
		CHANNELS 3 Zrotation Yrotation Xrotation
		JOINT RightLeg
		{
			OFFSET -0.038290 -0.382569 -0.008850
			CHANNELS 3 Zrotation Yrotation Xrotation
			JOINT RightFoot
			{
				OFFSET 0.015774 -0.398415 -0.042312
				CHANNELS 3 Zrotation Yrotation Xrotation
				JOINT RightToe
				{
					OFFSET -0.025372 -0.048144 0.123348
					CHANNELS 3 Zrotation Yrotation Xrotation
					End Site
					{
						OFFSET 0.000000 0.000000 0.000000
					}
				}
			}
		}
	}
	JOINT Spine
	{
		OFFSET -0.002533 0.108963 -0.026696
		CHANNELS 3 Zrotation Yrotation Xrotation
		JOINT Spine1
		{
			OFFSET 0.005487 0.135180 0.001092
			CHANNELS 3 Zrotation Yrotation Xrotation
			JOINT Spine2
			{
				OFFSET 0.001457 0.052922 0.025425
				CHANNELS 3 Zrotation Yrotation Xrotation
				JOINT Neck
				{
					OFFSET -0.002778 0.213870 -0.042857
					CHANNELS 3 Zrotation Yrotation Xrotation
					JOINT Head
					{
						OFFSET 0.005152 0.064970 0.051349
						CHANNELS 3 Zrotation Yrotation Xrotation
						End Site
						{
							OFFSET 0.000000 0.000000 0.000000
						}
					}
				}
				JOINT LeftShoulder
				{
					OFFSET 0.078845 0.121749 -0.034090
					CHANNELS 3 Zrotation Yrotation Xrotation
					JOINT LeftArm
					{
						OFFSET 0.090977 0.030469 -0.008868
						CHANNELS 3 Zrotation Yrotation Xrotation
						JOINT LeftForeArm
						{
							OFFSET 0.259612 -0.012772 -0.027456
							CHANNELS 3 Zrotation Yrotation Xrotation
							JOINT LeftHand
							{
								OFFSET 0.249234 0.008986 -0.001171
								CHANNELS 3 Zrotation Yrotation Xrotation
								End Site
								{
									OFFSET 0.000000 0.000000 0.000000
								}
							}
						}
					}
				}
				JOINT RightShoulder
				{
					OFFSET -0.081759 0.118833 -0.038615
					CHANNELS 3 Zrotation Yrotation Xrotation
					JOINT RightArm
					{
						OFFSET -0.096012 0.032551 -0.009143
						CHANNELS 3 Zrotation Yrotation Xrotation
						JOINT RightForeArm
						{
							OFFSET -0.253742 -0.013329 -0.021401
							CHANNELS 3 Zrotation Yrotation Xrotation
							JOINT RightHand
							{
								OFFSET -0.255298 0.007772 -0.005559
								CHANNELS 3 Zrotation Yrotation Xrotation
								End Site
								{
									OFFSET 0.000000 0.000000 0.000000
								}
							}
						}
					}
				}
			}
		}
	}
}
MOTION
Frames: 7
Frame Time: 0.050000
0.000000 0.942293 0.000000 -1.494938 14.401688 6.303845 3.277152 -0.214001 -0.686499 -2.645365 0.209330 -7.593705 6.027715 13.756089 6.307935 0.000000 0.000000 0.000000 1.079007 1.032879 -10.096911 -0.717210 -0.116710 -4.547608 5.145738 8.362431 9.245062 0.000000 0.000000 0.000000 4.755146 -0.762940 6.547647 3.080415 -1.894733 3.426714 -5.329511 -5.431050 6.239365 3.362495 -0.060072 -21.401179 0.000000 0.000000 0.000000 -27.361787 -30.838291 16.596132 -23.833093 -25.929223 1.603420 30.688563 -51.231638 -12.860089 0.000000 0.000000 0.000000 28.702566 18.210898 10.648463 45.408896 13.178657 -0.082806 -1.341658 57.913851 2.122652 0.000000 0.000000 0.000000 
0.000098 0.941215 0.002477 -1.800311 13.458643 6.641142 2.499187 -0.187592 -0.991928 -0.372109 0.200757 -7.781611 6.506787 14.841291 7.549643 0.000000 0.000000 0.000000 0.209959 0.965101 -9.968429 1.736520 -0.364356 -5.273438 6.607370 10.427222 10.856692 0.000000 0.000000 0.000000 4.652890 -0.668463 5.644178 2.304787 -1.526315 3.848310 -5.128612 -4.442019 6.647595 3.710456 -0.065942 -22.650898 0.000000 0.000000 0.000000 -26.371073 -28.769891 14.771942 -26.865763 -24.355752 1.690794 30.787242 -55.305431 -14.198126 0.000000 0.000000 0.000000 28.610407 16.243884 9.528194 45.632914 12.994250 -0.270096 5.069886 59.129415 5.910359 0.000000 0.000000 0.000000 
0.000219 0.941210 0.004897 -2.353850 13.682916 6.104638 3.728918 -0.250059 -0.982225 -0.705230 0.201525 -7.703729 6.000331 14.149205 7.952576 0.000000 0.000000 0.000000 1.380073 0.927496 -8.668543 1.196127 -0.378475 -6.783616 7.139856 10.768381 12.334149 0.000000 0.000000 0.000000 5.583646 -0.684569 4.994626 1.365028 -0.880499 2.211178 -5.032590 -4.780345 8.154146 3.884525 -0.311966 -21.664316 0.000000 0.000000 0.000000 -28.057523 -27.499157 14.331208 -28.250084 -19.995885 0.858073 24.220829 -61.007119 -11.977475 0.000000 0.000000 0.000000 28.882667 17.059164 10.128738 44.804315 12.750068 -0.498153 5.770274 56.655030 5.945749 0.000000 0.000000 0.000000 
0.000296 0.941276 0.007338 -2.643176 13.685104 6.042373 3.708201 -0.223079 -0.446126 -0.560952 0.204351 -8.188577 7.059181 15.679349 7.520855 0.000000 0.000000 0.000000 1.268312 0.866894 -8.091307 2.093412 -0.468962 -7.432643 8.196535 12.650837 12.611294 0.000000 0.000000 0.000000 5.759333 -0.639993 4.410806 0.854771 -0.711790 3.121407 -4.694243 -3.670929 7.678490 4.284957 -0.436434 -21.320098 0.000000 0.000000 0.000000 -29.709165 -27.552532 14.199841 -29.595140 -15.228810 0.091705 15.863325 -65.387600 -7.817226 0.000000 0.000000 0.000000 28.985168 16.578261 10.264434 44.793296 11.652550 -0.994045 7.757600 58.378847 7.461888 0.000000 0.000000 0.000000 
0.000302 0.940863 0.009346 -2.758370 13.936176 5.539883 4.125520 -0.214628 0.285562 -0.537397 0.203565 -8.409696 6.920405 15.435577 7.483419 0.000000 0.000000 0.000000 1.308867 0.810634 -7.477070 1.935754 -0.486478 -8.121763 8.023948 12.164607 12.964292 0.000000 0.000000 0.000000 5.507384 -0.583847 4.144249 0.793557 -0.763554 3.943640 -4.589220 -3.437018 6.973328 5.027264 -1.020698 -19.585014 0.000000 0.000000 0.000000 -31.250244 -26.421562 13.462355 -30.877768 -10.790153 -0.768433 4.091300 -68.150177 -0.365739 0.000000 0.000000 0.000000 29.247874 16.481895 10.324616 43.599985 11.635467 -0.996813 10.658892 57.380205 8.835399 0.000000 0.000000 0.000000 
0.000115 0.941256 0.010322 -2.742851 13.816289 5.365336 3.792312 -0.176669 0.611713 0.330872 0.200908 -8.567914 6.862793 15.318463 7.395641 0.000000 0.000000 0.000000 1.207358 0.789910 -7.312812 2.450346 -0.519544 -8.112986 7.892028 12.148702 12.484511 0.000000 0.000000 0.000000 5.478778 -0.579248 4.165161 -0.027573 -0.344763 3.995685 -3.851648 -2.786029 7.028689 4.351344 -0.602032 -19.460163 0.000000 0.000000 0.000000 -31.474945 -26.044666 13.002325 -32.551198 -7.528192 -1.515683 -4.323163 -71.414564 5.534709 0.000000 0.000000 0.000000 28.971942 17.055730 10.868307 42.676280 11.357065 -1.151991 13.371454 56.977589 10.241054 0.000000 0.000000 0.000000 
-0.000039 0.941132 0.010230 -2.641159 14.262435 5.458967 3.907190 -0.188782 0.611750 0.186076 0.202418 -8.898777 6.641783 15.078670 7.830051 0.000000 0.000000 0.000000 1.106763 0.815782 -7.636402 2.412512 -0.511065 -7.850870 7.397633 11.490566 12.020421 0.000000 0.000000 0.000000 5.402681 -0.567118 4.072439 -0.271564 -0.208795 3.766610 -4.075119 -2.322183 6.887855 4.408425 -0.568773 -19.255399 0.000000 0.000000 0.000000 -32.002897 -25.004714 11.924781 -33.790196 -5.570662 -1.931842 -8.926519 -72.876080 8.913551 0.000000 0.000000 0.000000 29.216416 16.934204 11.160042 41.898649 11.272886 -1.270232 17.630376 57.097252 12.684097 0.000000 0.000000 0.000000 
